Coordinates
version=1
nRows=27
nColumns=12
inDegrees=yes

Units are S.I. units (second, meters, Newtons, ...)
Angles are in degrees

endheader
time	SC_y	SC_z	SC_x	AC_y	AC_z	AC_x	GH_y	GH_z	GH_yy	EL_x	PS_y
       0.0              -50.67           35.3          3.486          52.64          8.985         -5.231          57.92          77.83          105.3          134.3          6.803
   0.04676              -50.67          35.29          3.487          52.64          8.985         -5.233          57.92          77.81          105.2          134.3          6.815
   0.09353              -50.67          35.29          3.487          52.64          8.985         -5.234          57.92           77.8          105.2          134.3          6.828
    0.1403              -50.67          35.29          3.488          52.64          8.984         -5.236          57.92          77.78          105.2          134.3          6.842
    0.1871              -50.67          35.28          3.488          52.64          8.984         -5.238          57.92          77.77          105.1          134.3          6.857
    0.2338              -50.66          35.28          3.489          52.64          8.984          -5.24          57.93          77.75          105.1          134.3          6.873
    0.2806              -50.66          35.28           3.49          52.64          8.983         -5.242          57.93          77.73          105.0          134.3           6.89
    0.3274              -50.66          35.27           3.49          52.64          8.983         -5.245          57.93          77.71          105.0          134.2          6.908
    0.3741              -50.66          35.27          3.491          52.64          8.982         -5.247          57.93          77.69          104.9          134.2          6.928
    0.4209              -50.66          35.26          3.492          52.64          8.982          -5.25          57.94          77.67          104.9          134.2          6.949
    0.4676              -50.66          35.26          3.492          52.64          8.981         -5.253          57.94          77.64          104.8          134.2          6.971
    0.5144              -50.66          35.25          3.493          52.64           8.98         -5.256          57.94          77.62          104.8          134.2          6.995
    0.5612              -50.66          35.25          3.494          52.64           8.98         -5.259          57.95          77.59          104.7          134.2          7.021
    0.6079              -50.65          35.24          3.495          52.64          8.979         -5.263          57.95          77.56          104.6          134.1          7.049
    0.6547              -50.65          35.24          3.496          52.65          8.978         -5.267          57.96          77.52          104.5          134.1           7.08
    0.7015              -50.65          35.23          3.498          52.65          8.977         -5.271          57.96          77.49          104.4          134.1          7.113
    0.7482              -50.65          35.22          3.499          52.65          8.976         -5.275          57.97          77.45          104.3          134.1          7.149
     0.795              -50.65          35.21            3.5          52.65          8.975          -5.28          57.97           77.4          104.2          134.0          7.188
    0.8418              -50.64           35.2          3.502          52.65          8.974         -5.286          57.98          77.36          104.1          134.0           7.23
    0.8885              -50.64          35.19          3.503          52.65          8.973         -5.292          57.99           77.3          104.0          134.0          7.277
    0.9353              -50.64          35.18          3.505          52.65          8.972         -5.298          57.99          77.25          103.8          133.9          7.328
    0.9821              -50.63          35.17          3.507          52.65           8.97         -5.306           58.0          77.19          103.7          133.9          7.384
     1.029              -50.63          35.16           3.51          52.65          8.969         -5.314          58.01          77.12          103.5          133.8          7.447
     1.076              -50.63          35.14          3.512          52.65          8.967         -5.323          58.02          77.04          103.3          133.8          7.516
     1.122              -50.62          35.13          3.515          52.65          8.965         -5.333          58.03          76.96          103.1          133.7          7.592
     1.169              -50.62          35.11          3.518          52.65          8.963         -5.344          58.05          76.86          102.9          133.6          7.678
     1.216              -50.61          35.09          3.521          52.65           8.96         -5.356          58.06          76.76          102.6          133.6          7.774
